<svg width="12" height="16" viewBox="0 0 12 16" fill="none" xmlns="http://www.w3.org/2000/svg">
<path fill-rule="evenodd" clip-rule="evenodd" d="M3.31855 1.64592C3.35172 1.59935 3.39113 1.56241 3.43452 1.5372C3.47791 1.512 3.52443 1.49902 3.5714 1.49902C3.61838 1.49902 3.6649 1.512 3.70829 1.5372C3.75167 1.56241 3.79109 1.59935 3.82426 1.64592L8.10998 7.64592C8.14324 7.69236 8.16962 7.74754 8.18763 7.80828C8.20563 7.86903 8.2149 7.93415 8.2149 7.99992C8.2149 8.06568 8.20563 8.1308 8.18763 8.19155C8.16962 8.2523 8.14324 8.30747 8.10998 8.35392L3.82426 14.3539C3.7572 14.4478 3.66624 14.5005 3.5714 14.5005C3.47656 14.5005 3.38561 14.4478 3.31855 14.3539C3.25149 14.26 3.21381 14.1327 3.21381 13.9999C3.21381 13.8671 3.25149 13.7398 3.31855 13.6459L7.35212 7.99992L3.31855 2.35392C3.28529 2.30747 3.2589 2.2523 3.2409 2.19155C3.22289 2.13081 3.21362 2.06568 3.21362 1.99992C3.21362 1.93415 3.22289 1.86903 3.2409 1.80828C3.2589 1.74754 3.28529 1.69236 3.31855 1.64592Z" fill="#BDBDBD"/>
</svg>
