<?xml version="1.0" encoding="UTF-8"?>
<svg id="_레이어_1" data-name="레이어 1" xmlns="http://www.w3.org/2000/svg" viewBox="0 0 595.28 841.89">
  <defs>
    <style>
      .cls-1 {
        fill: #7fb672;
      }

      .cls-2 {
        fill: #afd693;
      }

      .cls-3 {
        fill: #4e8f4d;
      }
    </style>
  </defs>
  <polygon class="cls-1" points="169.69 381.08 296.95 291.41 424.9 381.08 424.9 403.73 296.95 332.92 176.34 403.73 176.34 551.06 169.69 551.06 169.69 381.08"/>
  <polygon class="cls-2" points="189.33 418.78 288.03 368.72 288.03 408.01 189.33 448.56 189.33 418.78"/>
  <polygon class="cls-2" points="189.33 469.79 288.03 441.27 288.03 481.2 189.33 499.57 189.33 469.79"/>
  <polygon class="cls-2" points="189.33 528.09 288.03 518.9 288.03 551.06 189.33 551.06 189.33 528.09"/>
  <polygon class="cls-3" points="307.51 364.6 307.51 551.06 424.9 551.06 424.9 467.89 366.2 468.84 356.94 488.48 404.78 488.48 404.78 515.41 346.48 533.47 323.04 476.76 346.48 420.77 382.92 443.18 424.9 442.86 424.9 430.82 307.51 364.6"/>
</svg>